<svg width="29" height="29" viewBox="0 0 29 29" fill="none" xmlns="http://www.w3.org/2000/svg">
<path d="M16.9166 2.41667H7.24998C6.60904 2.41667 5.99435 2.67128 5.54114 3.1245C5.08793 3.57771 4.83331 4.1924 4.83331 4.83334V24.1667C4.83331 24.8076 5.08793 25.4223 5.54114 25.8755C5.99435 26.3287 6.60904 26.5833 7.24998 26.5833H21.75C22.3909 26.5833 23.0056 26.3287 23.4588 25.8755C23.912 25.4223 24.1666 24.8076 24.1666 24.1667V9.66667M16.9166 2.41667L24.1666 9.66667M16.9166 2.41667V9.66667H24.1666M19.3333 15.7083H9.66665M19.3333 20.5417H9.66665M12.0833 10.875H9.66665" stroke="#1E1E1E" stroke-width="2" stroke-linecap="round" stroke-linejoin="round"/>
</svg>
